<svg width="28" height="28" viewBox="0 0 28 28" fill="none" xmlns="http://www.w3.org/2000/svg">
<g id="InClinico">
<path id="Vector" d="M22.017 8.32351L18.5862 12.4181M5.94347 12.6514L9.51623 8.35391M15.7815 12.4224L12.3207 8.34905M6.61188 14.1655C6.61188 15.3061 5.68662 16.2315 4.54593 16.2315C3.40524 16.2315 2.47998 15.3061 2.47998 14.1655C2.47998 13.0235 3.40524 12.0995 4.54593 12.0995C5.68662 12.0995 6.61188 13.0235 6.61188 14.1655ZM15.1202 13.9295C15.1202 12.7876 16.0455 11.8636 17.1862 11.8636C18.3269 11.8636 19.2522 12.7876 19.2522 13.9295C19.2522 15.0715 18.3269 15.9956 17.1862 15.9956C16.0493 16.0005 15.1252 15.0827 15.1202 13.9458V13.9295ZM12.9819 6.84085C12.9819 7.98279 12.0566 8.90679 10.9159 8.90679C9.77398 8.90679 8.84998 7.98279 8.84998 6.84085C8.84998 5.70016 9.77398 4.7749 10.9159 4.7749C12.0566 4.7749 12.9819 5.70016 12.9819 6.84085ZM25.52 6.84085C25.52 7.98279 24.5947 8.90679 23.4541 8.90679C22.312 8.90679 21.3881 7.98279 21.3881 6.84085C21.3881 5.70016 22.312 4.7749 23.4541 4.7749C24.5947 4.7749 25.52 5.70016 25.52 6.84085Z" stroke="#6A4AC1" stroke-width="2" stroke-linecap="round" stroke-linejoin="round"/>
<path id="Vector_2" d="M17.1853 20.6042V23.2268M23.4532 15.8201V23.227M10.9151 15.8201V23.227M4.54749 20.8401V23.2274" stroke="#6A4AC1" stroke-width="2" stroke-linecap="round" stroke-linejoin="round"/>
</g>
</svg>
